<?xml version="1.0" standalone="no"?><!DOCTYPE svg PUBLIC "-//W3C//DTD SVG 1.1//EN" "http://www.w3.org/Graphics/SVG/1.1/DTD/svg11.dtd"><svg t="1677835825587" class="icon" viewBox="0 0 1024 1024" version="1.1" xmlns="http://www.w3.org/2000/svg" p-id="5232" xmlns:xlink="http://www.w3.org/1999/xlink" width="200" height="200"><path d="M892.89000001 831.63m-32.17000001 1e-8l-700.08-1e-8q-32.17 0-32.17-32.17l0 0q0-32.17 32.17-32.17l700.08-1e-8q32.17 0 32.17000001 32.17000001l0 0q0 32.17-32.17000001 32.17000001Z" fill="#515151" p-id="5233"></path><path d="M892.89000001 257.17m-32.17 0l-700.08000001 0q-32.17 0-32.17-32.17l0 0q0-32.17 32.17-32.17l700.08-1e-8q32.17 0 32.17000001 32.17000001l0 0q0 32.17-32.17 32.17Z" fill="#515151" p-id="5234"></path><path d="M574.67 638.91m-32.16999999 0l-381.87000002 0q-32.17 0-32.17-32.17l0 0q0-32.17 32.17000001-32.17000001l381.87000001 1e-8q32.17 0 32.16999999 32.17l0 0q0 32.17-32.16999999 32.17Z" fill="#515151" p-id="5235"></path><path d="M574.67 445.89m-32.17 0l-381.87 0q-32.17 0-32.17-32.17l0 0q0-32.17 32.17-32.17l381.87 0q32.17 0 32.17 32.17l0 0q0 32.17-32.17 32.17Z" fill="#515151" p-id="5236"></path><path d="M702.7 511.84L893.92 639.38 893.92 384.3 702.7 511.84z" fill="#515151" p-id="5237"></path></svg>